# xmcd
#
# Track frame offsets: 
#        150
#        8897
#        30441
#        50255
#        69338
#        91079
#        113238
#        133645
#        152142
#        167663
#        185408
#        206021
#        225422
#        245334
#        266786
#        290201
#        307673
#        324638
#
# Disc length: 4365 seconds
#
# Revision: 0
# Processed by: cddbd v1.5.2PL0 Copyright (c) Steve Scherf et al.
# Submitted via: ExactAudioCopy v0.95b4
#
DISCID=ee110b12
DTITLE=Mr. Mike - Piping Hot
DYEAR=1900
DGENRE=Rap
TTITLE0=Guess Who's Back
TTITLE1=That's Me
TTITLE2=Ride Wit Us (Ft. M.J.G.)
TTITLE3=Ima Do It (Ft. J.K.)
TTITLE4=Get Live (Ft. Mseize)
TTITLE5=What
TTITLE6=Yes IT's Us (Ft. Bun B)
TTITLE7=Dirty Shine (Ft. J.)
TTITLE8=From Tha Streets (Ft. Bigg Gip, Back Bone and Smooth)
TTITLE9=Up In Here
TTITLE10=Piping Hot
TTITLE11=Can't Give Up Yet
TTITLE12=Ghetto Living
TTITLE13=Fa Show (Ft. J.T. Money)
TTITLE14=This Is How It Goes
TTITLE15=Get Krunk (Ft. Kingpin Skinny Pimp)
TTITLE16=Know Body Knows
TTITLE17=Praise Thanx!
EXTD=
EXTT0=
EXTT1=
EXTT2=
EXTT3=
EXTT4=
EXTT5=
EXTT6=
EXTT7=
EXTT8=
EXTT9=
EXTT10=
EXTT11=
EXTT12=
EXTT13=
EXTT14=
EXTT15=
EXTT16=
EXTT17=
PLAYORDER=
